<?xml version="1.0" encoding="utf-8"?>
<!-- Generator: Adobe Illustrator 23.0.3, SVG Export Plug-In . SVG Version: 6.00 Build 0)  -->
<svg version="1.1" id="圖層_1" xmlns="http://www.w3.org/2000/svg" xmlns:xlink="http://www.w3.org/1999/xlink" x="0px" y="0px"
	 viewBox="0 0 180.1 183.6" style="enable-background:new 0 0 180.1 183.6;" xml:space="preserve">
<style type="text/css">
	.st0{enable-background:new    ;}
</style>
<title>logo</title>
<g class="st0">
	<path d="M8.9,176.9c0-1.5,0.1-2.5,0.3-2.9c0-1.3,0.3-4.2,1-8.6c-1.3-0.2-2.4-0.7-3.5-1.6c-1.3-0.8-2.2-1.4-2.9-1.6
		c-2.6-1.9-3.8-3.5-3.8-4.8c0-1.7,2.3-3,7-3.8c2.8-1.3,5.3-4.4,7.7-9.3c2.8-5.3,5-12.2,6.7-20.8l2.2-13.4l1.3-4.5l26.8-86.2
		c2.3-2.6,3.6-5.5,3.8-8.9c1.3-5.7,3-8.9,5.1-9.6c1.7-0.6,2.9-1,3.5-1s2,1.1,4.2,3.2l1,1.9l1.9,4.2c1.3,2.3,3.3,3.2,6.1,2.6
		c0.4-0.2,2.2-0.3,5.4-0.3c5.1,0,10.5,0.3,16.3,1c3.4,1.3,6,2.7,7.7,4.2c2.8,2.6,4.5,4.7,5.3,6.5c0.7,1.8,1.5,5.7,2.4,11.7
		c0.6,3.8,1,6.8,1,8.9c0,3.8-1.5,10.4-4.6,19.6c-3.1,9.3-6.2,16.7-9.4,22.2c-3,5.3-9.1,13.7-18.2,25.2c-5.7,6.2-10.8,12.1-15,17.9
		c-3,3.6-5.2,5.9-6.7,6.7l-9.6,7.7c-11.3,9.4-18.2,14-20.8,14c-4.3,0-6.7,4.7-7.3,14.1c-0.2,8.3-3.5,12.5-9.9,12.5
		c-1.3,0-2.3-0.4-3.2-1.3C9.5,180.6,8.9,178.8,8.9,176.9z M34.5,137.6c0,1.3,0.5,1.9,1.6,1.9c2.6,0,6.6-2.7,12.1-8
		c6.4-5.5,12.3-12,17.9-19.5c0.6-1.1,4.7-6.2,12.1-15.3c0.8-0.8,1.8-2,2.9-3.5c1.1-1.5,1.6-2.6,1.6-3.2l2.6-3.8
		c2.3-3.8,5.1-9.2,8.3-16c3.2-6.8,5.3-12.2,6.4-16.3c1.5-4.5,2.2-9,2.2-13.7c0-4.5-0.9-8.1-2.6-10.9c-0.9-1.7-2-2.8-3.4-3.4
		c-1.4-0.5-4.1-0.8-8.1-0.8c-8.7,0-16,3.8-21.9,11.3C60.4,44.1,56,53.5,53,64.8c-2.6,9.8-3.8,17.1-3.8,22l-4.8,15.6
		c-6.6,18.5-9.9,29.9-9.9,34.2V137.6z"/>
	<path d="M149.1,163.5c-3.8-3.6-5.7-6.3-5.7-8c0-1.7,0.9-4.2,2.7-7.3c1.8-3.2,3.9-6.2,6.2-8.9c1.1-1.7,2.3-2.8,3.8-3.2
		c1.5-0.4,3.5-0.6,6.1-0.6c8.1,0,13.3,2.5,15.6,7.3l2.2,4.2l-2.2,7c-1.3,4-4,7.6-8.3,10.5c-4.3,3-8.3,4.5-12.1,4.5
		C155.7,168.9,153,167.1,149.1,163.5z"/>
</g>
</svg>
